<mxfile host="app.diagrams.net" modified="2023-05-27T00:34:45.247Z" agent="Mozilla/5.0 (Windows NT 10.0; Win64; x64) AppleWebKit/537.36 (KHTML, like Gecko) Chrome/113.0.0.0 Safari/537.36" etag="xmi3FoieUtq46v7Gefe_" version="21.3.4" type="github">
  <diagram id="C5RBs43oDa-KdzZeNtuy" name="Page-1">
    <mxGraphModel dx="868" dy="739" grid="1" gridSize="10" guides="1" tooltips="1" connect="1" arrows="1" fold="1" page="1" pageScale="1" pageWidth="827" pageHeight="1169" math="0" shadow="0">
      <root>
        <mxCell id="WIyWlLk6GJQsqaUBKTNV-0" />
        <mxCell id="WIyWlLk6GJQsqaUBKTNV-1" parent="WIyWlLk6GJQsqaUBKTNV-0" />
        <mxCell id="XuOkCP83UwjK-ADQWeNM-18" style="edgeStyle=orthogonalEdgeStyle;rounded=0;orthogonalLoop=1;jettySize=auto;html=1;entryX=0;entryY=0.25;entryDx=0;entryDy=0;" edge="1" parent="WIyWlLk6GJQsqaUBKTNV-1" source="XuOkCP83UwjK-ADQWeNM-9" target="XuOkCP83UwjK-ADQWeNM-12">
          <mxGeometry relative="1" as="geometry" />
        </mxCell>
        <mxCell id="XuOkCP83UwjK-ADQWeNM-38" style="edgeStyle=orthogonalEdgeStyle;rounded=0;orthogonalLoop=1;jettySize=auto;html=1;entryX=0.25;entryY=0;entryDx=0;entryDy=0;" edge="1" parent="WIyWlLk6GJQsqaUBKTNV-1" source="XuOkCP83UwjK-ADQWeNM-9" target="XuOkCP83UwjK-ADQWeNM-13">
          <mxGeometry relative="1" as="geometry">
            <Array as="points">
              <mxPoint x="55" y="680" />
              <mxPoint x="480" y="680" />
            </Array>
          </mxGeometry>
        </mxCell>
        <mxCell id="XuOkCP83UwjK-ADQWeNM-9" value="" style="shape=actor;whiteSpace=wrap;html=1;" vertex="1" parent="WIyWlLk6GJQsqaUBKTNV-1">
          <mxGeometry x="30" y="780" width="50" height="60" as="geometry" />
        </mxCell>
        <mxCell id="XuOkCP83UwjK-ADQWeNM-10" value="SRAS System" style="swimlane;" vertex="1" parent="WIyWlLk6GJQsqaUBKTNV-1">
          <mxGeometry x="150" y="605" width="620" height="385" as="geometry" />
        </mxCell>
        <mxCell id="XuOkCP83UwjK-ADQWeNM-20" style="edgeStyle=orthogonalEdgeStyle;rounded=0;orthogonalLoop=1;jettySize=auto;html=1;exitX=1;exitY=0.5;exitDx=0;exitDy=0;entryX=0.142;entryY=0.983;entryDx=0;entryDy=0;entryPerimeter=0;" edge="1" parent="XuOkCP83UwjK-ADQWeNM-10" source="XuOkCP83UwjK-ADQWeNM-12" target="XuOkCP83UwjK-ADQWeNM-13">
          <mxGeometry relative="1" as="geometry">
            <mxPoint x="260" y="165" as="targetPoint" />
            <Array as="points">
              <mxPoint x="160" y="205" />
              <mxPoint x="317" y="205" />
            </Array>
          </mxGeometry>
        </mxCell>
        <mxCell id="XuOkCP83UwjK-ADQWeNM-39" style="edgeStyle=orthogonalEdgeStyle;rounded=0;orthogonalLoop=1;jettySize=auto;html=1;" edge="1" parent="XuOkCP83UwjK-ADQWeNM-10" source="XuOkCP83UwjK-ADQWeNM-12" target="XuOkCP83UwjK-ADQWeNM-14">
          <mxGeometry relative="1" as="geometry">
            <Array as="points">
              <mxPoint x="480" y="225" />
            </Array>
          </mxGeometry>
        </mxCell>
        <mxCell id="XuOkCP83UwjK-ADQWeNM-12" value="Public Client" style="rounded=0;whiteSpace=wrap;html=1;" vertex="1" parent="XuOkCP83UwjK-ADQWeNM-10">
          <mxGeometry x="40" y="190" width="120" height="60" as="geometry" />
        </mxCell>
        <mxCell id="XuOkCP83UwjK-ADQWeNM-23" style="edgeStyle=orthogonalEdgeStyle;rounded=0;orthogonalLoop=1;jettySize=auto;html=1;exitX=0.5;exitY=1;exitDx=0;exitDy=0;" edge="1" parent="XuOkCP83UwjK-ADQWeNM-10" source="XuOkCP83UwjK-ADQWeNM-13" target="XuOkCP83UwjK-ADQWeNM-16">
          <mxGeometry relative="1" as="geometry">
            <Array as="points">
              <mxPoint x="360" y="215" />
              <mxPoint x="360" y="215" />
            </Array>
          </mxGeometry>
        </mxCell>
        <mxCell id="XuOkCP83UwjK-ADQWeNM-34" style="edgeStyle=orthogonalEdgeStyle;rounded=0;orthogonalLoop=1;jettySize=auto;html=1;entryX=1;entryY=0.5;entryDx=0;entryDy=0;exitX=0.25;exitY=1;exitDx=0;exitDy=0;" edge="1" parent="XuOkCP83UwjK-ADQWeNM-10" source="XuOkCP83UwjK-ADQWeNM-13" target="XuOkCP83UwjK-ADQWeNM-12">
          <mxGeometry relative="1" as="geometry" />
        </mxCell>
        <mxCell id="XuOkCP83UwjK-ADQWeNM-13" value="Auth Server" style="rounded=0;whiteSpace=wrap;html=1;" vertex="1" parent="XuOkCP83UwjK-ADQWeNM-10">
          <mxGeometry x="300" y="125" width="120" height="60" as="geometry" />
        </mxCell>
        <mxCell id="XuOkCP83UwjK-ADQWeNM-40" style="edgeStyle=orthogonalEdgeStyle;rounded=0;orthogonalLoop=1;jettySize=auto;html=1;" edge="1" parent="XuOkCP83UwjK-ADQWeNM-10" source="XuOkCP83UwjK-ADQWeNM-14">
          <mxGeometry relative="1" as="geometry">
            <mxPoint x="160" y="235" as="targetPoint" />
            <Array as="points">
              <mxPoint x="490" y="235" />
            </Array>
          </mxGeometry>
        </mxCell>
        <mxCell id="XuOkCP83UwjK-ADQWeNM-43" style="edgeStyle=orthogonalEdgeStyle;rounded=0;orthogonalLoop=1;jettySize=auto;html=1;" edge="1" parent="XuOkCP83UwjK-ADQWeNM-10" source="XuOkCP83UwjK-ADQWeNM-14" target="XuOkCP83UwjK-ADQWeNM-16">
          <mxGeometry relative="1" as="geometry">
            <Array as="points">
              <mxPoint x="510" y="255" />
              <mxPoint x="510" y="255" />
            </Array>
          </mxGeometry>
        </mxCell>
        <mxCell id="XuOkCP83UwjK-ADQWeNM-14" value="API Controller" style="rounded=0;whiteSpace=wrap;html=1;" vertex="1" parent="XuOkCP83UwjK-ADQWeNM-10">
          <mxGeometry x="450" y="125" width="120" height="60" as="geometry" />
        </mxCell>
        <mxCell id="XuOkCP83UwjK-ADQWeNM-33" style="edgeStyle=orthogonalEdgeStyle;rounded=0;orthogonalLoop=1;jettySize=auto;html=1;entryX=0.592;entryY=0.967;entryDx=0;entryDy=0;entryPerimeter=0;" edge="1" parent="XuOkCP83UwjK-ADQWeNM-10" source="XuOkCP83UwjK-ADQWeNM-16" target="XuOkCP83UwjK-ADQWeNM-13">
          <mxGeometry relative="1" as="geometry">
            <Array as="points">
              <mxPoint x="371" y="255" />
              <mxPoint x="371" y="255" />
            </Array>
          </mxGeometry>
        </mxCell>
        <mxCell id="XuOkCP83UwjK-ADQWeNM-44" style="edgeStyle=orthogonalEdgeStyle;rounded=0;orthogonalLoop=1;jettySize=auto;html=1;entryX=0.75;entryY=1;entryDx=0;entryDy=0;" edge="1" parent="XuOkCP83UwjK-ADQWeNM-10" source="XuOkCP83UwjK-ADQWeNM-16" target="XuOkCP83UwjK-ADQWeNM-14">
          <mxGeometry relative="1" as="geometry">
            <Array as="points">
              <mxPoint x="540" y="245" />
              <mxPoint x="540" y="245" />
            </Array>
          </mxGeometry>
        </mxCell>
        <mxCell id="XuOkCP83UwjK-ADQWeNM-16" value="Model" style="rounded=0;whiteSpace=wrap;html=1;" vertex="1" parent="XuOkCP83UwjK-ADQWeNM-10">
          <mxGeometry x="300" y="295" width="270" height="60" as="geometry" />
        </mxCell>
        <mxCell id="XuOkCP83UwjK-ADQWeNM-22" value="Frontend" style="swimlane;" vertex="1" parent="XuOkCP83UwjK-ADQWeNM-10">
          <mxGeometry x="10" y="115" width="200" height="200" as="geometry" />
        </mxCell>
        <mxCell id="XuOkCP83UwjK-ADQWeNM-50" value="Backend" style="swimlane;" vertex="1" parent="XuOkCP83UwjK-ADQWeNM-10">
          <mxGeometry x="270" y="30" width="330" height="340" as="geometry" />
        </mxCell>
        <mxCell id="XuOkCP83UwjK-ADQWeNM-11" value="Users" style="text;strokeColor=none;align=center;fillColor=none;html=1;verticalAlign=middle;whiteSpace=wrap;rounded=0;" vertex="1" parent="WIyWlLk6GJQsqaUBKTNV-1">
          <mxGeometry x="25" y="840" width="60" height="40" as="geometry" />
        </mxCell>
        <mxCell id="XuOkCP83UwjK-ADQWeNM-19" style="edgeStyle=orthogonalEdgeStyle;rounded=0;orthogonalLoop=1;jettySize=auto;html=1;entryX=1;entryY=0.75;entryDx=0;entryDy=0;" edge="1" parent="WIyWlLk6GJQsqaUBKTNV-1" source="XuOkCP83UwjK-ADQWeNM-12" target="XuOkCP83UwjK-ADQWeNM-9">
          <mxGeometry relative="1" as="geometry" />
        </mxCell>
        <mxCell id="XuOkCP83UwjK-ADQWeNM-29" style="edgeStyle=orthogonalEdgeStyle;rounded=0;orthogonalLoop=1;jettySize=auto;html=1;" edge="1" parent="WIyWlLk6GJQsqaUBKTNV-1" source="XuOkCP83UwjK-ADQWeNM-24">
          <mxGeometry relative="1" as="geometry">
            <mxPoint x="720" y="935" as="targetPoint" />
          </mxGeometry>
        </mxCell>
        <mxCell id="XuOkCP83UwjK-ADQWeNM-24" value="" style="shape=datastore;whiteSpace=wrap;html=1;" vertex="1" parent="WIyWlLk6GJQsqaUBKTNV-1">
          <mxGeometry x="810" y="890" width="110" height="90" as="geometry" />
        </mxCell>
        <mxCell id="XuOkCP83UwjK-ADQWeNM-25" style="edgeStyle=orthogonalEdgeStyle;rounded=0;orthogonalLoop=1;jettySize=auto;html=1;entryX=0;entryY=0.3;entryDx=0;entryDy=0;" edge="1" parent="WIyWlLk6GJQsqaUBKTNV-1" source="XuOkCP83UwjK-ADQWeNM-16" target="XuOkCP83UwjK-ADQWeNM-24">
          <mxGeometry relative="1" as="geometry">
            <Array as="points">
              <mxPoint x="760" y="917" />
              <mxPoint x="760" y="917" />
            </Array>
          </mxGeometry>
        </mxCell>
        <mxCell id="XuOkCP83UwjK-ADQWeNM-35" style="edgeStyle=orthogonalEdgeStyle;rounded=0;orthogonalLoop=1;jettySize=auto;html=1;" edge="1" parent="WIyWlLk6GJQsqaUBKTNV-1" source="XuOkCP83UwjK-ADQWeNM-13" target="XuOkCP83UwjK-ADQWeNM-9">
          <mxGeometry relative="1" as="geometry">
            <Array as="points">
              <mxPoint x="510" y="670" />
              <mxPoint x="40" y="670" />
            </Array>
          </mxGeometry>
        </mxCell>
        <mxCell id="XuOkCP83UwjK-ADQWeNM-51" value="Third-party Services" style="swimlane;" vertex="1" parent="WIyWlLk6GJQsqaUBKTNV-1">
          <mxGeometry x="800" y="605" width="140" height="255" as="geometry" />
        </mxCell>
      </root>
    </mxGraphModel>
  </diagram>
</mxfile>
